<svg width="517" height="640" xmlns="http://www.w3.org/2000/svg" xmlns:xlink="http://www.w3.org/1999/xlink" overflow="hidden"><g transform="translate(-368 17)"><path d="M573 536 517 481.88 517 174.12 573 120Z" fill="#FFFFFF" fill-rule="evenodd" fill-opacity="0.45098"/><path d="M659.029 549.392 629.505 623 592 544.431 592 56.1684 660-16.0001 659.029 549.392Z" fill="#FFFFFF" fill-rule="evenodd" fill-opacity="0.45098"/><path d="M0 56 54.12 0 361.88 0 416 56Z" fill="#FFFFFF" fill-rule="evenodd" fill-opacity="0.45098" transform="matrix(-6.12323e-17 -1 -1 6.12323e-17 735 536)"/><path d="M368.17 325.666 496.043 201.218 495.378 271.756 436.752 328.812 494.284 387.926 493.656 454.605Z" fill="#FFFFFF" fill-rule="evenodd" fill-opacity="0.45098"/><path d="M0 0 178.435 0 128.762 50.0867 46.955 50.0867 46.955 132.576 0 179.922Z" fill="#FFFFFF" fill-rule="evenodd" fill-opacity="0.45098" transform="matrix(-0.716637 -0.697447 -0.697447 0.716637 884.55 334.078)"/></g></svg>